<svg xmlns="http://www.w3.org/2000/svg" viewBox="0 0 1600 640" fill="#dceaff">
  <circle cx="31.3" cy="56.0" r="1.27" opacity="0.45"/>
  <circle cx="144.5" cy="48.9" r="3.63" opacity=".045"/>
  <circle cx="144.5" cy="48.9" r="1.51" opacity="0.56"/>
  <circle cx="244.1" cy="2.4" r="1.30" opacity="0.62"/>
  <circle cx="342.7" cy="73.4" r="1.38" opacity="0.39"/>
  <path d="M450.3 45.9 450.90000000000003 49.3 453.5 49.9 450.90000000000003 50.5 450.3 53.9 449.7 50.5 447.1 49.9 449.7 49.3Z" opacity=".32"/>
  <circle cx="450.3" cy="49.9" r="1.05" opacity="0.37"/>
  <circle cx="545.6" cy="25.4" r="4.22" opacity=".045"/>
  <circle cx="545.6" cy="25.4" r="1.76" opacity="0.85"/>
  <circle cx="668.8" cy="19.4" r="0.85" opacity="0.61"/>
  <circle cx="800.2" cy="80.3" r="3.70" opacity=".045"/>
  <circle cx="800.2" cy="80.3" r="1.54" opacity="0.85"/>
  <circle cx="957.6" cy="47.2" r="1.19" opacity="0.53"/>
  <circle cx="1016.1" cy="0.6" r="0.81" opacity="0.43"/>
  <circle cx="1163.0" cy="78.7" r="4.02" opacity=".045"/>
  <circle cx="1163.0" cy="78.7" r="1.68" opacity="0.78"/>
  <circle cx="1265.1" cy="3.1" r="1.24" opacity="0.68"/>
  <circle cx="1288.6" cy="52.0" r="1.20" opacity="0.71"/>
  <circle cx="1420.3" cy="32.0" r="1.38" opacity="0.40"/>
  <circle cx="1525.2" cy="42.9" r="4.28" opacity=".045"/>
  <circle cx="1525.2" cy="42.9" r="1.78" opacity="0.58"/>
  <circle cx="29.0" cy="180.8" r="0.85" opacity="0.55"/>
  <circle cx="126.5" cy="94.9" r="0.88" opacity="0.68"/>
  <path d="M312.0 155.2 312.6 158.6 315.2 159.2 312.6 159.79999999999998 312.0 163.2 311.4 159.79999999999998 308.8 159.2 311.4 158.6Z" opacity=".32"/>
  <circle cx="312.0" cy="159.2" r="4.31" opacity=".045"/>
  <circle cx="312.0" cy="159.2" r="1.80" opacity="0.74"/>
  <circle cx="332.0" cy="100.8" r="1.23" opacity="0.46"/>
  <circle cx="463.1" cy="92.1" r="0.83" opacity="0.78"/>
  <circle cx="629.4" cy="101.6" r="4.18" opacity=".045"/>
  <circle cx="629.4" cy="101.6" r="1.74" opacity="0.85"/>
  <circle cx="674.8" cy="181.1" r="4.35" opacity=".045"/>
  <circle cx="674.8" cy="181.1" r="1.81" opacity="0.85"/>
  <circle cx="784.5" cy="179.4" r="3.50" opacity=".045"/>
  <circle cx="784.5" cy="179.4" r="1.46" opacity="0.61"/>
  <circle cx="864.9" cy="143.4" r="1.05" opacity="0.51"/>
  <circle cx="1023.3" cy="127.4" r="0.87" opacity="0.71"/>
  <circle cx="1155.3" cy="164.7" r="4.31" opacity=".045"/>
  <circle cx="1155.3" cy="164.7" r="1.80" opacity="0.62"/>
  <circle cx="1195.3" cy="177.6" r="1.22" opacity="0.85"/>
  <circle cx="1371.8" cy="166.5" r="1.15" opacity="0.85"/>
  <circle cx="1409.0" cy="133.7" r="0.97" opacity="0.73"/>
  <circle cx="1589.8" cy="130.6" r="0.97" opacity="0.85"/>
  <path d="M88.3 197.2 88.89999999999999 200.6 91.5 201.2 88.89999999999999 201.79999999999998 88.3 205.2 87.7 201.79999999999998 85.1 201.2 87.7 200.6Z" opacity=".32"/>
  <circle cx="88.3" cy="201.2" r="1.30" opacity="0.83"/>
  <circle cx="207.3" cy="200.9" r="0.81" opacity="0.61"/>
  <circle cx="221.8" cy="223.2" r="1.01" opacity="0.56"/>
  <circle cx="424.1" cy="196.0" r="0.92" opacity="0.79"/>
  <circle cx="445.4" cy="248.0" r="3.89" opacity=".045"/>
  <circle cx="445.4" cy="248.0" r="1.62" opacity="0.42"/>
  <circle cx="594.7" cy="271.2" r="1.20" opacity="0.47"/>
  <circle cx="718.5" cy="233.3" r="0.83" opacity="0.65"/>
  <circle cx="774.0" cy="260.0" r="4.02" opacity=".045"/>
  <circle cx="774.0" cy="260.0" r="1.68" opacity="0.56"/>
  <circle cx="939.9" cy="259.5" r="3.60" opacity=".045"/>
  <circle cx="939.9" cy="259.5" r="1.50" opacity="0.61"/>
  <circle cx="1030.4" cy="255.8" r="1.03" opacity="0.79"/>
  <circle cx="1143.9" cy="245.2" r="3.60" opacity=".045"/>
  <circle cx="1143.9" cy="245.2" r="1.50" opacity="0.40"/>
  <circle cx="1231.5" cy="238.7" r="0.96" opacity="0.42"/>
  <circle cx="1356.3" cy="263.6" r="1.16" opacity="0.85"/>
  <path d="M1450.4 208.3 1451.0 211.70000000000002 1453.6000000000001 212.3 1451.0 212.9 1450.4 216.3 1449.8000000000002 212.9 1447.2 212.3 1449.8000000000002 211.70000000000002Z" opacity=".32"/>
  <circle cx="1450.4" cy="212.3" r="1.12" opacity="0.85"/>
  <circle cx="1537.4" cy="269.5" r="1.36" opacity="0.78"/>
  <circle cx="4.8" cy="298.6" r="0.93" opacity="0.82"/>
  <circle cx="117.5" cy="335.1" r="0.93" opacity="0.40"/>
  <circle cx="223.6" cy="337.8" r="3.86" opacity=".045"/>
  <circle cx="223.6" cy="337.8" r="1.61" opacity="0.85"/>
  <circle cx="406.7" cy="297.5" r="4.28" opacity=".045"/>
  <circle cx="406.7" cy="297.5" r="1.78" opacity="0.55"/>
  <circle cx="445.5" cy="360.2" r="1.09" opacity="0.83"/>
  <circle cx="557.3" cy="280.5" r="3.89" opacity=".045"/>
  <circle cx="557.3" cy="280.5" r="1.62" opacity="0.85"/>
  <circle cx="745.6" cy="288.7" r="1.14" opacity="0.59"/>
  <circle cx="787.1" cy="352.9" r="0.92" opacity="0.71"/>
  <circle cx="894.5" cy="331.6" r="4.18" opacity=".045"/>
  <circle cx="894.5" cy="331.6" r="1.74" opacity="0.56"/>
  <circle cx="981.2" cy="330.5" r="3.79" opacity=".045"/>
  <circle cx="981.2" cy="330.5" r="1.58" opacity="0.52"/>
  <circle cx="1071.3" cy="329.5" r="3.57" opacity=".045"/>
  <circle cx="1071.3" cy="329.5" r="1.49" opacity="0.37"/>
  <path d="M1262.2 356.1 1262.8 359.5 1265.4 360.1 1262.8 360.70000000000005 1262.2 364.1 1261.6000000000001 360.70000000000005 1259.0 360.1 1261.6000000000001 359.5Z" opacity=".32"/>
  <circle cx="1262.2" cy="360.1" r="4.09" opacity=".045"/>
  <circle cx="1262.2" cy="360.1" r="1.70" opacity="0.83"/>
  <circle cx="1382.6" cy="343.3" r="1.16" opacity="0.62"/>
  <circle cx="1472.5" cy="276.1" r="1.36" opacity="0.61"/>
  <circle cx="1575.5" cy="286.8" r="3.66" opacity=".045"/>
  <circle cx="1575.5" cy="286.8" r="1.53" opacity="0.76"/>
  <circle cx="103.6" cy="378.6" r="1.34" opacity="0.85"/>
  <circle cx="196.9" cy="433.9" r="1.27" opacity="0.85"/>
  <circle cx="245.9" cy="435.2" r="0.88" opacity="0.53"/>
  <circle cx="346.0" cy="423.6" r="4.31" opacity=".045"/>
  <circle cx="346.0" cy="423.6" r="1.80" opacity="0.85"/>
  <circle cx="477.6" cy="380.0" r="1.41" opacity="0.65"/>
  <circle cx="580.8" cy="418.3" r="3.79" opacity=".045"/>
  <circle cx="580.8" cy="418.3" r="1.58" opacity="0.51"/>
  <circle cx="667.6" cy="423.5" r="4.35" opacity=".045"/>
  <circle cx="667.6" cy="423.5" r="1.81" opacity="0.37"/>
  <circle cx="843.7" cy="394.0" r="3.89" opacity=".045"/>
  <circle cx="843.7" cy="394.0" r="1.62" opacity="0.47"/>
  <circle cx="931.6" cy="391.3" r="3.96" opacity=".045"/>
  <circle cx="931.6" cy="391.3" r="1.65" opacity="0.55"/>
  <path d="M1007.6 392.5 1008.2 395.9 1010.8000000000001 396.5 1008.2 397.1 1007.6 400.5 1007.0 397.1 1004.4 396.5 1007.0 395.9Z" opacity=".32"/>
  <circle cx="1007.6" cy="396.5" r="3.86" opacity=".045"/>
  <circle cx="1007.6" cy="396.5" r="1.61" opacity="0.59"/>
  <circle cx="1101.6" cy="394.6" r="3.63" opacity=".045"/>
  <circle cx="1101.6" cy="394.6" r="1.51" opacity="0.45"/>
  <circle cx="1215.6" cy="391.3" r="3.92" opacity=".045"/>
  <circle cx="1215.6" cy="391.3" r="1.64" opacity="0.51"/>
  <circle cx="1348.1" cy="454.4" r="1.45" opacity="0.83"/>
  <circle cx="1453.3" cy="439.4" r="1.26" opacity="0.85"/>
  <circle cx="1503.4" cy="451.6" r="0.92" opacity="0.70"/>
  <circle cx="35.2" cy="468.1" r="0.83" opacity="0.78"/>
  <circle cx="150.6" cy="494.7" r="1.20" opacity="0.49"/>
  <circle cx="283.9" cy="457.3" r="1.15" opacity="0.83"/>
  <circle cx="413.2" cy="515.4" r="3.89" opacity=".045"/>
  <circle cx="413.2" cy="515.4" r="1.62" opacity="0.78"/>
  <circle cx="442.5" cy="496.4" r="1.24" opacity="0.47"/>
  <circle cx="577.5" cy="464.4" r="3.86" opacity=".045"/>
  <circle cx="577.5" cy="464.4" r="1.61" opacity="0.45"/>
  <circle cx="741.5" cy="525.4" r="0.80" opacity="0.85"/>
  <path d="M802.4 463.7 803.0 467.09999999999997 805.6 467.7 803.0 468.3 802.4 471.7 801.8 468.3 799.1999999999999 467.7 801.8 467.09999999999997Z" opacity=".32"/>
  <circle cx="802.4" cy="467.7" r="0.83" opacity="0.62"/>
  <circle cx="950.4" cy="493.6" r="0.77" opacity="0.83"/>
  <circle cx="1061.8" cy="485.0" r="0.77" opacity="0.85"/>
  <circle cx="1111.3" cy="478.5" r="1.09" opacity="0.49"/>
  <circle cx="1200.6" cy="477.0" r="1.36" opacity="0.61"/>
  <circle cx="1291.3" cy="490.4" r="0.96" opacity="0.73"/>
  <circle cx="1397.8" cy="533.0" r="0.97" opacity="0.65"/>
  <circle cx="1528.4" cy="510.7" r="1.43" opacity="0.67"/>
  <circle cx="48.7" cy="592.3" r="1.28" opacity="0.85"/>
  <circle cx="157.6" cy="582.6" r="1.00" opacity="0.47"/>
  <circle cx="268.0" cy="582.9" r="3.63" opacity=".045"/>
  <circle cx="268.0" cy="582.9" r="1.51" opacity="0.59"/>
  <circle cx="330.5" cy="586.7" r="1.11" opacity="0.65"/>
  <circle cx="479.0" cy="612.0" r="4.18" opacity=".045"/>
  <circle cx="479.0" cy="612.0" r="1.74" opacity="0.79"/>
  <path d="M621.2 613.0 621.8000000000001 616.4 624.4000000000001 617.0 621.8000000000001 617.6 621.2 621.0 620.6 617.6 618.0 617.0 620.6 616.4Z" opacity=".32"/>
  <circle cx="621.2" cy="617.0" r="1.20" opacity="0.62"/>
  <circle cx="662.8" cy="567.2" r="1.15" opacity="0.85"/>
  <circle cx="758.8" cy="585.2" r="4.28" opacity=".045"/>
  <circle cx="758.8" cy="585.2" r="1.78" opacity="0.56"/>
  <circle cx="908.2" cy="592.6" r="0.83" opacity="0.83"/>
  <circle cx="1047.1" cy="608.3" r="1.19" opacity="0.74"/>
  <circle cx="1113.9" cy="610.4" r="4.05" opacity=".045"/>
  <circle cx="1113.9" cy="610.4" r="1.69" opacity="0.53"/>
  <circle cx="1230.4" cy="624.1" r="1.43" opacity="0.85"/>
  <circle cx="1311.4" cy="625.6" r="3.54" opacity=".045"/>
  <circle cx="1311.4" cy="625.6" r="1.47" opacity="0.78"/>
  <circle cx="1473.2" cy="607.6" r="1.38" opacity="0.74"/>
  <circle cx="1541.1" cy="624.0" r="0.81" opacity="0.71"/>
</svg>
