<?xml version="1.0" encoding="UTF-8" standalone="no"?>
<svg width="512" height="512" viewBox="0 0 135.467 135.467" version="1.1" id="svg1" xml:space="preserve"
     xmlns:xlink="http://www.w3.org/1999/xlink" xmlns="http://www.w3.org/2000/svg"><title id="title1">Fluxzero Logo</title>
    <defs id="defs1"> <linearGradient id="linearGradient7"><stop style="stop-color:#00b0ff;stop-opacity:1;" offset="0" id="stop7" />
        <stop style="stop-color:#6030ff;stop-opacity:1;" offset="1" id="stop8"/></linearGradient>
        <linearGradient id="linearGradient1"><stop style="stop-color:#000000;stop-opacity:1;" offset="0" id="stop1" />
            <stop style="stop-color:#000000;stop-opacity:0;" offset="1" id="stop2"/></linearGradient>
        <linearGradient xlink:href="#linearGradient7" id="linearGradient8" x1="44.158512" y1="26.900433" x2="91.308479"
                        y2="108.56657" gradientUnits="userSpaceOnUse"/></defs>
    <g id="layer1"><path id="path26" style="opacity:1;fill:#ffffff;stroke-width:3.17501" d="M 67.733507,1.8409119 124.79828,34.787275 V 100.68 l -57.064777,32.94636 -57.064771,-32.94637 2e-6,-65.892718 z" />
        <path id="path7"
              style="display:inline;opacity:1;fill:url(#linearGradient8);stroke:none;stroke-width:3.17501;stroke-linecap:butt;stroke-dasharray:none;stroke-opacity:1"
              d="m 66.141865,14.846676 a 9.1654356,9.1654356 0 0 0 -2.991039,1.088309 l -37.98434,21.930499 a 9.1654356,9.1654356 0 0 0 -4.583195,7.93752 v 43.860999 a 9.1654356,9.1654356 0 0 0 4.583195,7.93752 l 37.98434,21.930497 a 9.1654356,9.1654356 0 0 0 9.165355,0 L 110.30052,97.601523 a 9.1654356,9.1654356 0 0 0 4.5832,-7.93752 V 45.803004 a 9.1654356,9.1654356 0 0 0 -4.5832,-7.93752 L 72.316181,15.934985 a 9.1654356,9.1654356 0 0 0 -6.174316,-1.088309 z m 27.11676,29.924347 a 8.4666882,8.4666882 0 0 1 6.929305,4.224042 8.4666882,8.4666882 0 0 1 -3.099039,11.565732 8.4666882,8.4666882 0 0 1 -9.264057,-0.612368 l -13.325318,7.694124 a 6.9283377,6.9283377 0 0 0 -3.46388,5.999649 v 15.382045 a 8.4666882,8.4666882 0 0 1 5.164556,7.717895 8.4666882,8.4666882 0 0 1 -8.466688,8.466688 8.4666882,8.4666882 0 0 1 -8.466688,-8.466688 8.4666882,8.4666882 0 0 1 5.164555,-7.717895 V 73.637034 a 6.9281554,6.9281554 0 0 0 -3.46388,-5.999649 L 47.645274,59.945846 a 8.4666882,8.4666882 0 0 1 -9.267675,0.614951 8.4666882,8.4666882 0 0 1 -3.099044,-11.565732 8.4666882,8.4666882 0 0 1 6.929311,-4.223525 8.4666882,8.4666882 0 0 1 4.636421,1.124482 8.4666882,8.4666882 0 0 1 4.16203,8.365402 l 13.266924,7.6595 a 6.9281931,6.9281931 0 0 0 6.92776,0 l 13.320151,-7.690506 a 8.4666882,8.4666882 0 0 1 4.101052,-8.334396 8.4666882,8.4666882 0 0 1 4.636421,-1.124999 z"/>
        <path id="path10"
              style="opacity:1;fill:#ffffff;fill-opacity:1;stroke:none;stroke-width:3.14609;stroke-linecap:butt;stroke-dasharray:none;stroke-opacity:1"
              d="m 93.258625,44.771023 a 8.4666882,8.4666882 0 0 0 -4.636421,1.124999 8.4666882,8.4666882 0 0 0 -3.098527,11.565731 8.4666882,8.4666882 0 0 0 11.565214,3.099044 8.4666882,8.4666882 0 0 0 3.099039,-11.565732 8.4666882,8.4666882 0 0 0 -6.929305,-4.224042 z M 42.207866,44.77154 A 8.4666882,8.4666882 0 0 0 35.278555,48.995065 8.4666882,8.4666882 0 0 0 38.377599,60.560797 8.4666882,8.4666882 0 0 0 49.94333,57.461753 8.4666882,8.4666882 0 0 0 46.844287,45.896022 8.4666882,8.4666882 0 0 0 42.207866,44.77154 Z m 25.525638,43.503914 a 8.4666882,8.4666882 0 0 0 -8.466688,8.466688 8.4666882,8.4666882 0 0 0 8.466688,8.466688 8.4666882,8.4666882 0 0 0 8.466688,-8.466688 8.4666882,8.4666882 0 0 0 -8.466688,-8.466688 z"/>
        <path id="rect13"
              style="opacity:1;fill:#ffffff;fill-opacity:1;stroke:none;stroke-width:5.23129;stroke-linecap:butt;stroke-dasharray:none;stroke-opacity:1"
              d="m 42.264202,53.832803 a 3.3749293,3.3749293 63.059703 0 0 2.162373,4.25485 l 16.540683,9.549637 a 6.9281554,6.9281554 59.999829 0 1 3.464114,5.999979 v 19.104873 a 4,4 45 0 0 4,4 3.3750697,3.3750697 123.06678 0 0 2.604264,-4 V 73.642436 a 6.9283377,6.9283377 119.99952 0 1 3.464068,-6.000058 l 16.544909,-9.552579 a 3.9999414,3.9999414 104.99862 0 0 1.463959,-5.464097 3.3750294,3.3750294 3.0625887 0 0 -4.766123,-0.255003 l -16.541228,9.550105 a 6.9281931,6.9281931 179.99998 0 1 -6.928201,2e-6 L 47.728177,52.36863 a 3.9998534,3.9998534 164.99897 0 0 -5.463975,1.464173 z"/>
        <path style="color:#000000;fill:#dbdcdc;-inkscape-stroke:none"
              d="m 67.734375,2.8730469 c -1.857042,-10e-8 -3.714571,0.4816295 -5.376953,1.4414062 L 15.498047,31.367187 c -3.324764,1.919554 -5.376953,5.473394 -5.376953,9.3125 v 54.107422 c -2e-6,3.839109 2.052187,7.392951 5.376953,9.312501 l 46.859375,27.05469 c 3.324764,1.91955 7.427189,1.91955 10.751953,0 l 46.859375,-27.05469 c 3.32477,-1.91955 5.37695,-5.473393 5.37695,-9.312501 V 40.679687 c 1e-5,-3.839105 -2.05219,-7.392944 -5.37695,-9.3125 L 73.109375,4.3144531 c -1.662382,-0.9597768 -3.517958,-1.4414062 -5.375,-1.4414062 z m 0,3.1738281 c 1.307775,0 2.615652,0.3381559 3.789062,1.015625 l 46.857423,27.054687 c 2.34682,1.35494 3.78906,3.852625 3.78906,6.5625 v 54.107422 c 0,2.709877 -1.44224,5.207563 -3.78906,6.562501 L 71.523437,128.4043 c -2.346821,1.35493 -5.231303,1.35493 -7.578125,0 L 17.085937,101.34961 C 14.739115,99.994671 13.296874,97.496987 13.296875,94.787109 V 40.679687 c 0,-2.709876 1.442241,-5.207561 3.789062,-6.5625 L 63.945312,7.0625 C 65.118723,6.3850309 66.4266,6.046875 67.734375,6.046875 Z"
              id="path6" transform="matrix(1.0443083,0,0,1.0443083,-3.0011615,-3.0011477)"/></g></svg>