<?xml version="1.0" standalone="no"?>
<!DOCTYPE svg PUBLIC "-//W3C//DTD SVG 20010904//EN"
 "http://www.w3.org/TR/2001/REC-SVG-20010904/DTD/svg10.dtd">
<svg version="1.0" xmlns="http://www.w3.org/2000/svg"
 width="250.000000pt" height="91.000000pt" viewBox="0 0 250.000000 91.000000"
 preserveAspectRatio="xMidYMid meet">

<g transform="translate(0.000000,91.000000) scale(0.100000,-0.100000)"
fill="#000000" stroke="none">
<path d="M17 782 c-15 -16 -17 -54 -17 -329 0 -288 1 -311 18 -326 16 -15 55
-17 335 -17 315 0 316 0 331 22 24 33 24 613 0 646 -15 22 -16 22 -333 22
-295 0 -319 -1 -334 -18z m431 -176 c62 -22 99 -52 122 -96 26 -52 26 -98 -2
-127 -21 -23 -25 -23 -240 -23 l-218 0 0 129 c0 94 3 131 13 135 25 12 281 -3
325 -18z m137 -321 c0 -19 -8 -20 -229 -23 -136 -1 -234 2 -239 7 -5 5 -7 17
-4 26 6 13 34 15 239 13 225 -3 233 -4 233 -23z"/>
<path d="M160 538 c0 -38 1 -39 33 -36 29 3 32 6 32 38 0 32 -2 35 -32 36 -32
1 -33 0 -33 -38z"/>
<path d="M280 538 c0 -38 1 -39 33 -36 29 3 32 6 32 38 0 32 -2 35 -32 36 -32
1 -33 0 -33 -38z"/>
<path d="M400 534 l0 -34 55 0 c30 0 55 4 55 9 0 12 -46 41 -81 51 -28 8 -29
7 -29 -26z"/>
<path d="M160 430 c0 -20 5 -20 187 -18 170 3 188 5 191 21 3 16 -11 17 -187
17 -185 0 -191 -1 -191 -20z"/>
<path d="M820 665 l0 -35 116 0 c97 0 115 -2 111 -14 -3 -8 -58 -84 -121 -169
-99 -131 -116 -159 -116 -190 l0 -37 180 0 180 0 0 40 0 40 -120 0 c-66 0
-120 3 -120 6 0 3 54 76 120 163 103 135 120 162 120 194 l0 37 -175 0 -175 0
0 -35z"/>
<path d="M1267 662 l-37 -38 0 -165 0 -165 38 -37 38 -37 125 0 125 0 42 43
42 43 0 155 0 155 -43 42 -43 42 -125 0 -125 0 -37 -38z m255 -59 c16 -14 18
-33 18 -141 0 -158 -2 -162 -108 -162 -110 0 -112 3 -112 158 0 158 2 162 108
162 56 0 80 -4 94 -17z"/>
<path d="M1720 460 l0 -240 175 0 175 0 0 40 0 40 -130 0 -130 0 0 60 0 60
120 0 120 0 0 40 0 40 -120 0 -121 0 3 63 3 62 128 3 127 3 0 34 0 35 -175 0
-175 0 0 -240z"/>
<path d="M2140 460 l0 -240 50 0 50 0 0 95 0 95 105 0 105 0 0 40 0 40 -105 0
-105 0 0 71 0 70 123 -2 122 -1 3 36 3 36 -175 0 -176 0 0 -240z"/>
</g>
</svg>
