<svg width="333" height="92" viewBox="0 0 333 92" fill="none" xmlns="http://www.w3.org/2000/svg">
<mask id="mask0_935_128" style="mask-type:alpha" maskUnits="userSpaceOnUse" x="0" y="0" width="333" height="92">
<path d="M2.26667 2.4C0.266667 4.53333 0 9.6 0 46.2667C0 84.6667 0.133333 87.7333 2.4 89.7333C4.53333 91.7333 9.73333 92 47.0667 92C89.0667 92 89.2 92 91.2 89.0667C94.4 84.6667 94.4 7.33333 91.2 2.93333C89.2 -4.79817e-06 89.0667 -4.79817e-06 46.8 -4.79817e-06C7.46667 -4.79817e-06 4.26667 0.133329 2.26667 2.4ZM59.7333 25.8667C68 28.8 72.9333 32.8 76 38.6667C79.4667 45.6 79.4667 51.7333 75.7333 55.6C72.9333 58.6667 72.4 58.6667 43.7333 58.6667H14.6667V41.4667C14.6667 28.9333 15.0667 24 16.4 23.4667C19.7333 21.8667 53.8667 23.8667 59.7333 25.8667ZM78 68.6667C78 71.2 76.9333 71.3333 47.4667 71.7333C29.3333 71.8667 16.2667 71.4667 15.6 70.8C14.9333 70.1333 14.6667 68.5333 15.0667 67.3333C15.8667 65.6 19.6 65.3333 46.9333 65.6C76.9333 66 78 66.1333 78 68.6667Z" fill="black"/>
<path d="M21.3335 34.9334C21.3335 40.0001 21.4668 40.1334 25.7335 39.7334C29.6002 39.3334 30.0002 38.9334 30.0002 34.6667C30.0002 30.4001 29.7335 30.0001 25.7335 29.8667C21.4668 29.7334 21.3335 29.8667 21.3335 34.9334Z" fill="black"/>
<path d="M37.3335 34.9334C37.3335 40.0001 37.4668 40.1334 41.7335 39.7334C45.6002 39.3334 46.0002 38.9334 46.0002 34.6667C46.0002 30.4001 45.7335 30.0001 41.7335 29.8667C37.4668 29.7334 37.3335 29.8667 37.3335 34.9334Z" fill="black"/>
<path d="M53.3335 35.4667V40H60.6668C64.6668 40 68.0002 39.4667 68.0002 38.8C68.0002 37.2 61.8668 33.3333 57.2002 32C53.4668 30.9333 53.3335 31.0667 53.3335 35.4667Z" fill="black"/>
<path d="M21.3335 49.3334C21.3335 52.0001 22.0002 52.0001 46.2668 51.7334C68.9335 51.3334 71.3335 51.0668 71.7335 48.9334C72.1335 46.8001 70.2668 46.6668 46.8002 46.6668C22.1335 46.6668 21.3335 46.8001 21.3335 49.3334Z" fill="black"/>
<path d="M109.333 17.9999V22.6666H124.8C137.733 22.6666 140.133 22.9332 139.6 24.5332C139.2 25.5999 131.867 35.7332 123.467 47.0666C110.267 64.5333 108 68.2666 108 72.3999V77.3333H132H156V71.9999V66.6666H140C131.2 66.6666 124 66.2666 124 65.8666C124 65.4666 131.2 55.7333 140 44.1333C153.733 26.1332 156 22.5332 156 18.2666V13.3332H132.667H109.333V17.9999Z" fill="black"/>
<path d="M168.933 18.3999L164 23.4666V45.4666V67.4666L169.067 72.3999L174.133 77.3333H190.8H207.467L213.067 71.5999L218.667 65.8666V45.1999V24.5332L212.933 18.9332L207.2 13.3332H190.533H173.867L168.933 18.3999ZM202.933 26.2666C205.067 28.1332 205.333 30.6666 205.333 45.0666C205.333 66.1333 205.067 66.6666 190.933 66.6666C176.267 66.6666 176 66.2666 176 45.5999C176 24.5332 176.267 23.9999 190.4 23.9999C197.867 23.9999 201.067 24.5332 202.933 26.2666Z" fill="black"/>
<path d="M229.333 45.3333V77.3333H252.667H276V71.9999V66.6666H258.667H241.333V58.6666V50.6666H257.333H273.333V45.3333V39.9999H257.333H241.2L241.6 31.5999L242 23.3332L259.067 22.9332L276 22.5332V17.9999V13.3332H252.667H229.333V45.3333Z" fill="black"/>
<path d="M285.333 45.3333V77.3333H292H298.667V64.6666V51.9999H312.667H326.667V46.6666V41.3333H312.667H298.667V31.8666V22.5332L315.067 22.7999L331.333 22.9332L331.733 18.1332L332.133 13.3332H308.8H285.333V45.3333Z" fill="black"/>
</mask>
<g mask="url(#mask0_935_128)">
<path d="M2.26667 2.4C0.266667 4.53333 0 9.6 0 46.2667C0 84.6667 0.133333 87.7333 2.4 89.7333C4.53333 91.7333 9.73333 92 47.0667 92C89.0667 92 89.2 92 91.2 89.0667C94.4 84.6667 94.4 7.33333 91.2 2.93333C89.2 -4.79817e-06 89.0667 -4.79817e-06 46.8 -4.79817e-06C7.46667 -4.79817e-06 4.26667 0.133329 2.26667 2.4ZM59.7333 25.8667C68 28.8 72.9333 32.8 76 38.6667C79.4667 45.6 79.4667 51.7333 75.7333 55.6C72.9333 58.6667 72.4 58.6667 43.7333 58.6667H14.6667V41.4667C14.6667 28.9333 15.0667 24 16.4 23.4667C19.7333 21.8667 53.8667 23.8667 59.7333 25.8667ZM78 68.6667C78 71.2 76.9333 71.3333 47.4667 71.7333C29.3333 71.8667 16.2667 71.4667 15.6 70.8C14.9333 70.1333 14.6667 68.5333 15.0667 67.3333C15.8667 65.6 19.6 65.3333 46.9333 65.6C76.9333 66 78 66.1333 78 68.6667Z" fill="black"/>
<path d="M21.3335 34.9334C21.3335 40.0001 21.4668 40.1334 25.7335 39.7334C29.6002 39.3334 30.0002 38.9334 30.0002 34.6667C30.0002 30.4001 29.7335 30.0001 25.7335 29.8667C21.4668 29.7334 21.3335 29.8667 21.3335 34.9334Z" fill="black"/>
<path d="M37.3335 34.9334C37.3335 40.0001 37.4668 40.1334 41.7335 39.7334C45.6002 39.3334 46.0002 38.9334 46.0002 34.6667C46.0002 30.4001 45.7335 30.0001 41.7335 29.8667C37.4668 29.7334 37.3335 29.8667 37.3335 34.9334Z" fill="black"/>
<path d="M53.3335 35.4667V40H60.6668C64.6668 40 68.0002 39.4667 68.0002 38.8C68.0002 37.2 61.8668 33.3333 57.2002 32C53.4668 30.9333 53.3335 31.0667 53.3335 35.4667Z" fill="black"/>
<path d="M21.3335 49.3334C21.3335 52.0001 22.0002 52.0001 46.2668 51.7334C68.9335 51.3334 71.3335 51.0668 71.7335 48.9334C72.1335 46.8001 70.2668 46.6668 46.8002 46.6668C22.1335 46.6668 21.3335 46.8001 21.3335 49.3334Z" fill="black"/>
<path d="M109.333 17.9999V22.6666H124.8C137.733 22.6666 140.133 22.9332 139.6 24.5332C139.2 25.5999 131.867 35.7332 123.467 47.0666C110.267 64.5333 108 68.2666 108 72.3999V77.3333H132H156V71.9999V66.6666H140C131.2 66.6666 124 66.2666 124 65.8666C124 65.4666 131.2 55.7333 140 44.1333C153.733 26.1332 156 22.5332 156 18.2666V13.3332H132.667H109.333V17.9999Z" fill="black"/>
<path d="M168.933 18.3999L164 23.4666V45.4666V67.4666L169.067 72.3999L174.133 77.3333H190.8H207.467L213.067 71.5999L218.667 65.8666V45.1999V24.5332L212.933 18.9332L207.2 13.3332H190.533H173.867L168.933 18.3999ZM202.933 26.2666C205.067 28.1332 205.333 30.6666 205.333 45.0666C205.333 66.1333 205.067 66.6666 190.933 66.6666C176.267 66.6666 176 66.2666 176 45.5999C176 24.5332 176.267 23.9999 190.4 23.9999C197.867 23.9999 201.067 24.5332 202.933 26.2666Z" fill="black"/>
<path d="M229.333 45.3333V77.3333H252.667H276V71.9999V66.6666H258.667H241.333V58.6666V50.6666H257.333H273.333V45.3333V39.9999H257.333H241.2L241.6 31.5999L242 23.3332L259.067 22.9332L276 22.5332V17.9999V13.3332H252.667H229.333V45.3333Z" fill="black"/>
<path d="M285.333 45.3333V77.3333H292H298.667V64.6666V51.9999H312.667H326.667V46.6666V41.3333H312.667H298.667V31.8666V22.5332L315.067 22.7999L331.333 22.9332L331.733 18.1332L332.133 13.3332H308.8H285.333V45.3333Z" fill="black"/>
<rect width="333" height="92" fill="white"/>
</g>
</svg>
